<?xml version="1.0" encoding="UTF-8"?>
<svg width="20px" height="20px" viewBox="0 0 20 20" version="1.1" xmlns="http://www.w3.org/2000/svg" xmlns:xlink="http://www.w3.org/1999/xlink">
    <!-- Generator: Sketch 53.2 (72643) - https://sketchapp.com -->
    <title>Info Circle</title>
    <desc>Created with Sketch.</desc>
    <g id="Timesheet-revamp" stroke="none" stroke-width="1" fill="none" fill-rule="evenodd">
        <g id="Non-Clarity---Add-Activity" transform="translate(-638.000000, -419.000000)" fill="#E2951D" fill-rule="nonzero">
            <g id="Info-Box" transform="translate(617.000000, 404.000000)">
                <g id="Info-Circle" transform="translate(21.000000, 15.000000)">
                    <path d="M9.6875,1.25 C14.3211328,1.25 18.125,5.00292969 18.125,9.6875 C18.125,14.3473047 14.3511719,18.125 9.6875,18.125 C5.02953125,18.125 1.25,14.3530469 1.25,9.6875 C1.25,5.03113281 5.02351562,1.25 9.6875,1.25 L9.6875,1.25 Z M9.6875,0 C4.33761719,0 0,4.33917969 0,9.6875 C0,15.0389453 4.33761719,19.375 9.6875,19.375 C15.0373828,19.375 19.375,15.0389453 19.375,9.6875 C19.375,4.33917969 15.0373828,0 9.6875,0 Z M8.28125,13.4375 L8.75,13.4375 L8.75,8.75 L8.28125,8.75 C8.02238281,8.75 7.8125,8.54011719 7.8125,8.28125 L7.8125,7.96875 C7.8125,7.70988281 8.02238281,7.5 8.28125,7.5 L10.15625,7.5 C10.4151172,7.5 10.625,7.70988281 10.625,7.96875 L10.625,13.4375 L11.09375,13.4375 C11.3526172,13.4375 11.5625,13.6473828 11.5625,13.90625 L11.5625,14.21875 C11.5625,14.4776172 11.3526172,14.6875 11.09375,14.6875 L8.28125,14.6875 C8.02238281,14.6875 7.8125,14.4776172 7.8125,14.21875 L7.8125,13.90625 C7.8125,13.6473828 8.02238281,13.4375 8.28125,13.4375 Z M9.6875,4.0625 C8.99714844,4.0625 8.4375,4.62214844 8.4375,5.3125 C8.4375,6.00285156 8.99714844,6.5625 9.6875,6.5625 C10.3778516,6.5625 10.9375,6.00285156 10.9375,5.3125 C10.9375,4.62214844 10.3778516,4.0625 9.6875,4.0625 Z" id="Shape"></path>
                </g>
            </g>
        </g>
    </g>
</svg>